<svg width="230" height="487" viewBox="0 0 230 487" fill="none" xmlns="http://www.w3.org/2000/svg">
<g clip-path="url(#clip0)">
<path fill-rule="evenodd" clip-rule="evenodd" d="M228.885 28.677C228.885 12.8494 216.035 0 200.208 0H28.1459C12.3184 0 -0.531067 12.8494 -0.531067 28.677V457.77C-0.531067 473.598 12.3184 486.447 28.1459 486.447H200.208C216.035 486.447 228.885 473.598 228.885 457.77V28.677Z" fill="#F2F2F2"/>
<path fill-rule="evenodd" clip-rule="evenodd" d="M134.359 40.8701C134.359 39.4059 133.17 38.2166 131.706 38.2166H98.7749C97.3084 38.2166 96.119 39.4059 96.119 40.8701C96.119 42.3355 97.3084 43.5248 98.7749 43.5248H131.706C133.17 43.5248 134.359 42.3355 134.359 40.8701Z" fill="#ACACAC"/>
<path d="M114.708 477.553C126.99 477.553 136.947 467.597 136.947 455.315C136.947 443.033 126.99 433.076 114.708 433.076C102.426 433.076 92.4695 443.033 92.4695 455.315C92.4695 467.597 102.426 477.553 114.708 477.553Z" fill="#FAFAFA"/>
<path fill-rule="evenodd" clip-rule="evenodd" d="M119.181 446.526L119.294 446.53L119.404 446.537L119.514 446.547L119.625 446.559L119.733 446.575L119.84 446.592L119.947 446.613L120.054 446.636L120.158 446.662L120.263 446.689L120.366 446.721L120.467 446.753L120.568 446.789L120.668 446.827L120.766 446.867L120.864 446.91L120.959 446.955L121.054 447.001L121.147 447.051L121.24 447.102L121.33 447.156L121.419 447.211L121.506 447.269L121.593 447.33L121.678 447.391L121.762 447.455L121.843 447.521L121.923 447.588L122.001 447.658L122.077 447.729L122.153 447.802L122.226 447.877L122.296 447.954L122.366 448.032L122.434 448.112L122.499 448.194L122.563 448.276L122.625 448.361L122.685 448.448L122.743 448.535L122.799 448.625L122.852 448.715L122.903 448.808L122.953 448.901L122.999 448.996L123.045 449.091L123.088 449.188L123.128 449.287L123.165 449.387L123.201 449.488L123.234 449.59L123.265 449.692L123.293 449.796L123.318 449.901L123.342 450.007L123.363 450.114L123.38 450.222L123.395 450.33L123.408 450.44L123.417 450.55L123.425 450.662L123.429 450.773L123.43 450.886V459.608L123.429 459.72L123.425 459.833L123.417 459.943L123.408 460.054L123.395 460.163L123.38 460.272L123.363 460.379L123.342 460.487L123.318 460.592L123.293 460.697L123.265 460.801L123.234 460.905L123.201 461.007L123.165 461.106L123.128 461.206L123.088 461.305L123.045 461.402L122.999 461.499L122.953 461.593L122.903 461.686L122.852 461.778L122.799 461.869L122.743 461.958L122.685 462.046L122.625 462.132L122.563 462.217L122.499 462.3L122.434 462.381L122.366 462.461L122.296 462.539L122.226 462.616L122.153 462.691L122.077 462.764L122.001 462.836L121.923 462.905L121.843 462.973L121.762 463.038L121.678 463.102L121.593 463.164L121.506 463.224L121.419 463.282L121.33 463.337L121.24 463.391L121.147 463.443L121.054 463.492L120.959 463.539L120.864 463.583L120.766 463.626L120.668 463.667L120.568 463.704L120.467 463.74L120.366 463.772L120.263 463.804L120.158 463.832L120.054 463.857L119.947 463.88L119.84 463.901L119.733 463.919L119.625 463.934L119.514 463.946L119.404 463.957L119.294 463.964L119.181 463.967L119.069 463.97H110.347L110.234 463.967L110.122 463.964L110.012 463.957L109.902 463.946L109.791 463.934L109.683 463.919L109.576 463.901L109.469 463.88L109.362 463.857L109.258 463.832L109.153 463.804L109.05 463.772L108.949 463.74L108.848 463.704L108.748 463.667L108.65 463.626L108.552 463.583L108.457 463.539L108.362 463.492L108.269 463.443L108.176 463.391L108.086 463.337L107.997 463.282L107.91 463.224L107.823 463.164L107.738 463.102L107.654 463.038L107.573 462.973L107.493 462.905L107.415 462.836L107.339 462.764L107.263 462.691L107.19 462.616L107.12 462.539L107.05 462.461L106.981 462.381L106.917 462.3L106.853 462.217L106.79 462.132L106.731 462.046L106.673 461.958L106.617 461.869L106.564 461.778L106.513 461.686L106.463 461.593L106.415 461.499L106.371 461.402L106.328 461.305L106.288 461.206L106.251 461.106L106.215 461.007L106.182 460.905L106.151 460.801L106.123 460.697L106.097 460.592L106.074 460.487L106.053 460.379L106.036 460.272L106.021 460.163L106.008 460.054L105.999 459.943L105.991 459.833L105.987 459.72L105.986 459.608V450.886L105.987 450.773L105.991 450.662L105.999 450.55L106.008 450.44L106.021 450.33L106.036 450.222L106.053 450.114L106.074 450.007L106.097 449.901L106.123 449.796L106.151 449.692L106.182 449.59L106.215 449.488L106.251 449.387L106.288 449.287L106.328 449.188L106.371 449.091L106.415 448.996L106.463 448.901L106.513 448.808L106.564 448.715L106.617 448.625L106.673 448.535L106.731 448.448L106.79 448.361L106.853 448.276L106.917 448.194L106.981 448.112L107.05 448.032L107.12 447.954L107.19 447.877L107.263 447.802L107.339 447.729L107.415 447.658L107.493 447.588L107.573 447.521L107.654 447.455L107.738 447.391L107.823 447.33L107.91 447.269L107.997 447.211L108.086 447.156L108.176 447.102L108.269 447.051L108.362 447.001L108.457 446.955L108.552 446.91L108.65 446.867L108.748 446.827L108.848 446.789L108.949 446.753L109.05 446.721L109.153 446.689L109.258 446.662L109.362 446.636L109.469 446.613L109.576 446.592L109.683 446.575L109.791 446.559L109.902 446.547L110.012 446.537L110.122 446.53L110.234 446.526L110.347 446.525H119.069L119.181 446.526ZM110.36 448.531L110.286 448.532L110.224 448.534L110.164 448.537L110.105 448.543L110.045 448.55L109.986 448.558L109.928 448.568L109.871 448.578L109.815 448.591L109.758 448.605L109.702 448.62L109.647 448.636L109.592 448.653L109.538 448.673L109.485 448.693L109.432 448.715L109.379 448.738L109.328 448.761L109.277 448.787L109.226 448.814L109.178 448.841L109.129 448.87L109.08 448.901L109.033 448.932L108.986 448.964L108.94 448.998L108.895 449.033L108.85 449.068L108.808 449.105L108.765 449.143L108.723 449.181L108.682 449.221L108.643 449.261L108.603 449.303L108.566 449.346L108.529 449.389L108.493 449.433L108.459 449.478L108.426 449.525L108.393 449.571L108.362 449.619L108.332 449.667L108.303 449.716L108.275 449.766L108.248 449.816L108.223 449.867L108.2 449.918L108.176 449.97L108.154 450.024L108.135 450.077L108.115 450.132L108.098 450.186L108.081 450.241L108.066 450.296L108.052 450.353L108.04 450.41L108.029 450.467L108.019 450.525L108.011 450.584L108.005 450.643L107.999 450.702L107.995 450.763L107.993 450.824L107.992 450.898V459.595L107.993 459.67L107.995 459.73L107.999 459.791L108.005 459.851L108.011 459.91L108.019 459.968L108.029 460.026L108.04 460.084L108.052 460.141L108.066 460.197L108.081 460.253L108.098 460.308L108.115 460.363L108.135 460.416L108.154 460.469L108.176 460.523L108.2 460.575L108.223 460.626L108.248 460.677L108.275 460.728L108.303 460.778L108.332 460.827L108.362 460.874L108.393 460.922L108.426 460.968L108.459 461.015L108.493 461.06L108.529 461.104L108.566 461.148L108.603 461.19L108.643 461.232L108.682 461.272L108.723 461.312L108.765 461.351L108.808 461.388L108.85 461.425L108.895 461.461L108.94 461.495L108.986 461.53L109.033 461.562L109.08 461.593L109.128 461.623L109.178 461.652L109.226 461.679L109.277 461.706L109.328 461.732L109.379 461.756L109.432 461.778L109.485 461.8L109.538 461.821L109.592 461.84L109.646 461.857L109.702 461.873L109.758 461.888L109.815 461.902L109.871 461.915L109.928 461.925L109.986 461.936L110.045 461.944L110.105 461.951L110.164 461.956L110.224 461.959L110.286 461.961L110.36 461.963H119.056L119.13 461.961L119.192 461.959L119.252 461.956L119.311 461.951L119.371 461.944L119.43 461.936L119.488 461.925L119.545 461.915L119.601 461.902L119.658 461.888L119.714 461.873L119.77 461.857L119.824 461.84L119.878 461.821L119.931 461.8L119.984 461.778L120.036 461.756L120.088 461.732L120.139 461.706L120.19 461.679L120.238 461.652L120.288 461.623L120.336 461.593L120.383 461.561L120.43 461.53L120.476 461.495L120.521 461.461L120.565 461.425L120.608 461.389L120.651 461.351L120.693 461.312L120.734 461.272L120.773 461.232L120.813 461.19L120.85 461.148L120.887 461.104L120.923 461.06L120.956 461.015L120.99 460.969L121.023 460.922L121.054 460.874L121.084 460.827L121.113 460.778L121.141 460.728L121.168 460.677L121.193 460.626L121.216 460.575L121.24 460.523L121.262 460.469L121.281 460.416L121.301 460.363L121.318 460.308L121.335 460.253L121.35 460.197L121.364 460.141L121.376 460.084L121.387 460.026L121.397 459.968L121.405 459.91L121.411 459.851L121.417 459.791L121.421 459.73L121.423 459.669L121.424 459.595V450.898L121.423 450.824L121.421 450.763L121.417 450.702L121.411 450.643L121.405 450.584L121.397 450.525L121.387 450.467L121.376 450.41L121.364 450.353L121.35 450.296L121.335 450.241L121.318 450.186L121.301 450.132L121.281 450.077L121.262 450.024L121.24 449.97L121.216 449.918L121.193 449.867L121.168 449.816L121.141 449.766L121.113 449.716L121.084 449.667L121.054 449.619L121.023 449.571L120.99 449.525L120.956 449.478L120.923 449.433L120.887 449.389L120.85 449.346L120.813 449.303L120.773 449.261L120.734 449.221L120.693 449.181L120.651 449.143L120.608 449.105L120.565 449.068L120.521 449.033L120.476 448.998L120.43 448.964L120.383 448.932L120.336 448.901L120.287 448.87L120.238 448.841L120.19 448.814L120.139 448.787L120.088 448.761L120.036 448.738L119.984 448.715L119.931 448.693L119.878 448.673L119.824 448.653L119.768 448.636L119.714 448.62L119.658 448.605L119.601 448.591L119.545 448.578L119.488 448.568L119.43 448.558L119.371 448.55L119.311 448.543L119.252 448.537L119.192 448.534L119.13 448.532L119.056 448.531H110.36Z" fill="#BABABA"/>
<path d="M114.708 26.9352C117.311 26.9352 119.422 24.8248 119.422 22.2215C119.422 19.6182 117.311 17.5079 114.708 17.5079C112.105 17.5079 109.994 19.6182 109.994 22.2215C109.994 24.8248 112.105 26.9352 114.708 26.9352Z" fill="#D8D8D8"/>
<path d="M114.708 24.3287C115.862 24.3287 116.798 23.3929 116.798 22.2385C116.798 21.0841 115.862 20.1483 114.708 20.1483C113.554 20.1483 112.618 21.0841 112.618 22.2385C112.618 23.3929 113.554 24.3287 114.708 24.3287Z" fill="#EB5055"/>
<path d="M214.546 69.0625H14.8676V422.746H214.546V69.0625Z" fill="#161616"/>
<path fill-rule="evenodd" clip-rule="evenodd" d="M215.768 66.12L216.798 66.8097L217.491 67.8454L217.735 69.0625V422.746L217.491 423.966L216.798 425.001L215.768 425.691L214.546 425.934H14.8676L13.6499 425.691L12.6159 425.001L11.9267 423.966L11.6831 422.746V69.0625L11.9267 67.8454L12.6159 66.8097L13.6499 66.12L14.8676 65.8766H214.546L215.768 66.12ZM14.8676 69.0625V422.746H214.546V69.0625H14.8676Z" fill="#C7C7C7"/>
</g>
<defs>
<clipPath id="clip0">
<rect width="229.416" height="486.447" fill="white"/>
</clipPath>
</defs>
</svg>
